<svg width="257" height="179" viewBox="0 0 257 179" fill="none" xmlns="http://www.w3.org/2000/svg">
<path d="M50.6724 65.1415C52.699 62.5092 54.8893 60.0087 57.2304 57.6544L57.2323 57.6527C64.4826 50.3118 73.105 44.4931 82.6009 40.5315C92.0966 36.5701 102.278 34.5447 112.555 34.5726L113.403 34.5749V33.7227V1.84994V1H112.558C82.9699 1 54.5946 12.8431 33.6736 33.9232C12.7529 55.0034 1 83.5937 1 113.404V113.418L1.00043 113.432L1.25306 121.386C1.25573 132.581 4.55145 143.524 10.7242 152.832C16.8994 162.144 25.6768 169.403 35.9465 173.689C46.2162 177.975 57.5169 179.097 68.4193 176.912C79.3218 174.727 89.3357 169.333 97.1958 161.413C105.056 153.494 110.408 143.404 112.576 132.419C114.744 121.436 113.632 110.05 109.378 99.7034C105.124 89.3563 97.9214 80.5118 88.6794 74.2894C79.5346 68.1324 68.8 64.816 57.8066 64.7463L57.7897 64.7293H57.4388C55.152 64.7293 52.8941 64.8721 50.6724 65.1415ZM193.014 65.144C195.041 62.5109 197.232 60.0096 199.574 57.6544L199.576 57.6527C206.826 50.3118 215.449 44.4931 224.945 40.5315C234.44 36.5701 244.622 34.5447 254.899 34.5726L255.747 34.5749V33.7227V1.84994V1H254.901C225.313 1 196.938 12.8431 176.017 33.9232C155.096 55.0034 143.344 83.5937 143.344 113.404V113.418L143.345 113.432L143.597 121.386C143.6 132.581 146.895 143.524 153.068 152.832C159.243 162.144 168.021 169.403 178.29 173.689C188.56 177.975 199.861 179.097 210.763 176.912C221.665 174.727 231.68 169.333 239.54 161.413C247.4 153.494 252.752 143.404 254.92 132.419C257.089 121.436 255.975 110.05 251.723 99.7034C247.469 89.3563 240.265 80.5118 231.023 74.2894C221.78 68.067 210.915 64.7454 199.798 64.7454C197.501 64.7454 195.239 64.878 193.014 65.144Z" stroke="#A1A1AA" stroke-width="2"/>
</svg>
